<?xml version="1.0" standalone="no"?>
<!DOCTYPE svg PUBLIC "-//W3C//DTD SVG 20010904//EN"
 "http://www.w3.org/TR/2001/REC-SVG-20010904/DTD/svg10.dtd">
<svg version="1.0" xmlns="http://www.w3.org/2000/svg"
 width="1000.000000pt" height="1000.000000pt" viewBox="0 0 1000.000000 1000.000000"
 preserveAspectRatio="xMidYMid meet">

<g transform="translate(0.000000,1000.000000) scale(0.100000,-0.100000)"
fill="#000000" stroke="none">
<path d="M3969 9399 c-160 -168 -780 -819 -1084 -1139 -55 -58 -147 -154 -205
-215 -313 -325 -1065 -1119 -1066 -1124 -1 -3 -7 -64 -14 -136 -7 -71 -16
-137 -21 -146 -5 -9 -20 -115 -34 -235 -14 -121 -50 -428 -80 -684 -30 -256
-136 -1162 -235 -2015 -99 -852 -201 -1722 -225 -1932 -25 -210 -47 -413 -50
-450 -3 -37 -14 -140 -24 -228 -11 -88 -18 -161 -16 -163 1 -2 220 224 485
502 265 278 484 506 487 506 2 0 2 -3 0 -7 -2 -5 -224 -381 -492 -836 -267
-456 -485 -831 -482 -833 2 -3 71 20 153 50 82 30 1319 480 2749 1000 1430
519 2613 949 2628 955 27 10 16 17 -215 132 -134 67 -301 150 -373 184 -71 35
-357 175 -635 312 -278 137 -769 379 -1092 538 l-588 289 -66 89 -66 90 39 41
c83 89 81 77 29 145 -25 33 -46 63 -46 67 0 4 30 38 66 76 53 54 65 73 60 91
-3 12 19 231 49 487 30 256 75 638 99 850 47 399 388 3323 432 3699 13 118 23
219 21 224 -1 5 -86 -78 -188 -184z m-39 -979 c-56 -476 -119 -1018 -141
-1205 -21 -187 -100 -857 -173 -1488 -74 -632 -136 -1151 -139 -1153 -4 -4
-1716 2281 -1740 2323 -6 10 67 91 358 393 122 127 1619 1701 1793 1885 97
103 138 140 140 128 1 -10 -43 -407 -98 -883z m-1590 -2530 c375 -503 791
-1060 924 -1238 132 -177 242 -328 243 -335 1 -6 -22 -38 -51 -71 l-54 -59
-129 174 c-71 96 -264 354 -428 574 -164 220 -485 650 -713 955 -228 305 -436
584 -463 620 -31 41 -49 75 -49 93 0 55 23 218 30 210 4 -4 315 -420 690 -923z
m106 -485 c749 -1002 915 -1227 920 -1239 2 -6 -15 -31 -39 -54 l-44 -43 -364
488 c-200 268 -581 778 -847 1133 l-483 645 6 70 c4 39 9 80 12 93 6 24 -33
75 839 -1093z m-27 -339 c435 -583 791 -1065 791 -1071 0 -6 -15 -26 -34 -44
-34 -33 -34 -33 -66 -16 -17 9 -33 15 -35 13 -2 -2 -39 -64 -83 -138 -76 -129
-91 -147 -323 -390 -134 -141 -538 -565 -898 -943 -360 -378 -656 -685 -658
-683 -2 2 64 586 147 1297 83 712 162 1389 175 1504 14 116 38 325 55 465 16
140 51 438 77 663 26 224 50 406 55 405 4 -2 363 -480 797 -1062z m1017 -987
l37 -51 -45 -45 -45 -45 -36 47 -36 47 41 49 c23 27 42 49 44 49 1 0 19 -23
40 -51z m-158 -163 c52 -73 38 -85 -49 -40 l-51 26 28 29 c15 16 31 29 34 29
4 0 21 -20 38 -44z m-600 -639 l-133 -225 -465 -489 c-256 -268 -561 -589
-679 -713 -118 -124 -238 -250 -268 -280 l-55 -55 8 79 c3 44 9 90 13 102 7
27 -59 -43 876 938 429 450 791 832 804 848 54 68 25 6 -101 -205z m-240 -409
c-8 -13 -81 -138 -163 -278 -146 -247 -153 -258 -275 -386 -633 -667 -955
-1002 -957 -1000 -2 2 3 56 11 121 13 104 18 121 43 149 31 34 172 184 329
346 55 58 273 287 485 510 211 222 417 440 458 482 76 80 94 95 69 56z"/>
<path d="M7446 9489 c-3 -8 -46 -212 -95 -454 -50 -242 -158 -768 -240 -1170
-82 -401 -216 -1049 -296 -1440 -80 -390 -144 -715 -143 -721 2 -6 148 108
326 253 178 146 326 262 329 259 7 -7 12 -94 63 -1081 48 -952 49 -967 62
-959 10 6 78 -53 78 -68 0 -5 -18 -31 -40 -59 l-40 -51 35 -43 35 -43 -61 -76
c-33 -43 -59 -81 -57 -85 2 -5 75 -83 163 -174 88 -91 507 -528 930 -970 424
-442 772 -803 774 -801 5 5 -35 811 -184 3644 -19 366 -35 689 -35 719 l0 54
-183 191 c-101 105 -270 281 -375 391 -106 110 -192 203 -192 207 0 4 191 163
425 354 l426 346 -47 52 c-26 28 -88 94 -139 146 -50 52 -268 282 -485 510
-217 228 -435 458 -485 510 -103 107 -537 563 -541 569 -2 2 -6 -2 -8 -10z
m1123 -2904 c193 -200 351 -367 351 -370 0 -5 -161 -212 -975 -1250 -142 -181
-295 -377 -339 -434 -45 -57 -82 -97 -83 -90 -1 8 -14 237 -28 509 -14 272
-34 659 -45 860 -10 201 -20 394 -22 430 l-2 65 394 322 c217 178 396 323 397
323 1 0 159 -164 352 -365z m450 -562 c1 -14 -251 -344 -726 -950 -399 -510
-728 -930 -730 -932 -2 -3 -18 9 -36 27 -38 38 -46 22 101 209 59 76 393 502
742 948 l635 810 7 -45 c3 -25 7 -55 7 -67z m1 -150 c0 -47 -4 -52 -271 -393
-149 -190 -384 -489 -522 -665 -138 -176 -328 -418 -421 -537 l-171 -218 -24
25 -24 24 37 48 c493 633 1383 1763 1389 1763 4 0 7 -21 7 -47z m5 -1158 c25
-478 61 -1171 81 -1539 19 -368 33 -672 32 -677 -4 -9 -1434 1482 -1431 1493
8 24 1268 1620 1270 1608 2 -8 23 -406 48 -885z m-1437 -668 l21 -22 -32 -38
-32 -39 -24 25 -23 25 28 36 c16 20 32 36 35 36 3 0 15 -10 27 -23z m518 -537
c229 -239 557 -581 728 -759 l311 -324 3 -76 3 -76 -83 85 c-204 209 -1443
1504 -1446 1512 -5 12 48 80 59 76 5 -2 196 -199 425 -438z m-20 -182 c270
-282 622 -650 783 -817 l291 -305 0 -75 0 -76 -64 65 c-173 176 -1559 1627
-1563 1637 -4 11 45 83 57 83 3 0 226 -231 496 -512z"/>
</g>
</svg>
